<mxfile host="app.diagrams.net" agent="Mozilla/5.0 (Windows NT 10.0; Win64; x64) AppleWebKit/537.36 (KHTML, like Gecko) Chrome/129.0.0.0 Safari/537.36" version="24.8.0">
  <diagram name="Sayfa -1" id="nwme1KWV6q_5PC23T8JU">
    <mxGraphModel dx="1687" dy="878" grid="1" gridSize="10" guides="1" tooltips="1" connect="1" arrows="1" fold="1" page="1" pageScale="1" pageWidth="827" pageHeight="1169" math="0" shadow="0">
      <root>
        <mxCell id="0" />
        <mxCell id="1" parent="0" />
        <mxCell id="EQRqfBlei0hE9X0uSdg--6" value="" style="image;aspect=fixed;perimeter=ellipsePerimeter;html=1;align=center;shadow=0;dashed=0;spacingTop=3;image=img/lib/active_directory/internet_globe.svg;" parent="1" vertex="1">
          <mxGeometry x="10" y="250" width="50" height="50" as="geometry" />
        </mxCell>
        <mxCell id="EQRqfBlei0hE9X0uSdg--9" value="" style="shape=ext;double=1;rounded=1;whiteSpace=wrap;html=1;fillColor=#d5e8d4;gradientColor=#97d077;strokeColor=#82b366;" parent="1" vertex="1">
          <mxGeometry x="220" y="430" width="660" height="50" as="geometry" />
        </mxCell>
        <mxCell id="EQRqfBlei0hE9X0uSdg--10" value="" style="endArrow=classic;html=1;rounded=0;entryX=0;entryY=0.5;entryDx=0;entryDy=0;entryPerimeter=0;exitX=1;exitY=0.5;exitDx=0;exitDy=0;" parent="1" target="Jj3LSNTunSgoR4GtScIY-8" edge="1" source="EQRqfBlei0hE9X0uSdg--6">
          <mxGeometry width="50" height="50" relative="1" as="geometry">
            <mxPoint x="60" y="269.5" as="sourcePoint" />
            <mxPoint x="117.05" y="269.5" as="targetPoint" />
          </mxGeometry>
        </mxCell>
        <mxCell id="EQRqfBlei0hE9X0uSdg--11" value="&lt;b&gt;&lt;font style=&quot;font-size: 22px;&quot;&gt;SERVER&lt;/font&gt;&lt;/b&gt;" style="text;strokeColor=none;align=center;fillColor=none;html=1;verticalAlign=middle;whiteSpace=wrap;rounded=0;" parent="1" vertex="1">
          <mxGeometry x="430" y="435" width="240" height="40" as="geometry" />
        </mxCell>
        <mxCell id="Jj3LSNTunSgoR4GtScIY-3" value="" style="html=1;verticalLabelPosition=bottom;align=center;labelBackgroundColor=#ffffff;verticalAlign=top;strokeWidth=2;strokeColor=#0080F0;shadow=0;dashed=0;shape=mxgraph.ios7.icons.smartphone;" vertex="1" parent="1">
          <mxGeometry x="18" y="320" width="34" height="40" as="geometry" />
        </mxCell>
        <mxCell id="Jj3LSNTunSgoR4GtScIY-4" value="" style="fontColor=#0066CC;verticalAlign=top;verticalLabelPosition=bottom;labelPosition=center;align=center;html=1;outlineConnect=0;fillColor=#CCCCCC;strokeColor=#6881B3;gradientColor=none;gradientDirection=north;strokeWidth=2;shape=mxgraph.networks.pc;" vertex="1" parent="1">
          <mxGeometry x="10" y="178" width="75" height="50" as="geometry" />
        </mxCell>
        <mxCell id="Jj3LSNTunSgoR4GtScIY-5" value="" style="endArrow=classic;html=1;rounded=0;exitX=1.059;exitY=0.5;exitDx=0;exitDy=0;exitPerimeter=0;" edge="1" parent="1" source="Jj3LSNTunSgoR4GtScIY-3" target="Jj3LSNTunSgoR4GtScIY-8">
          <mxGeometry width="50" height="50" relative="1" as="geometry">
            <mxPoint x="72" y="350" as="sourcePoint" />
            <mxPoint x="140" y="340" as="targetPoint" />
          </mxGeometry>
        </mxCell>
        <mxCell id="Jj3LSNTunSgoR4GtScIY-7" value="" style="rounded=1;whiteSpace=wrap;html=1;dashed=1;strokeWidth=2;fillColor=#f0f3f5;strokeColor=#10739e;" vertex="1" parent="1">
          <mxGeometry x="220" y="120" width="660" height="300" as="geometry" />
        </mxCell>
        <mxCell id="Jj3LSNTunSgoR4GtScIY-8" value="" style="outlineConnect=0;dashed=0;verticalLabelPosition=bottom;verticalAlign=top;align=center;html=1;shape=mxgraph.aws3.classic_load_balancer;fillColor=#F58534;gradientColor=none;" vertex="1" parent="1">
          <mxGeometry x="110" y="239" width="69" height="72" as="geometry" />
        </mxCell>
        <mxCell id="Jj3LSNTunSgoR4GtScIY-9" value="" style="rounded=1;whiteSpace=wrap;html=1;dashed=1;strokeWidth=3;" vertex="1" parent="1">
          <mxGeometry x="260" y="155" width="80" height="240" as="geometry" />
        </mxCell>
        <mxCell id="Jj3LSNTunSgoR4GtScIY-11" value="" style="rounded=1;whiteSpace=wrap;html=1;dashed=1;strokeWidth=3;" vertex="1" parent="1">
          <mxGeometry x="360" y="155" width="80" height="240" as="geometry" />
        </mxCell>
        <mxCell id="Jj3LSNTunSgoR4GtScIY-12" value="" style="rounded=1;whiteSpace=wrap;html=1;dashed=1;strokeWidth=3;" vertex="1" parent="1">
          <mxGeometry x="470" y="155" width="80" height="240" as="geometry" />
        </mxCell>
        <mxCell id="Jj3LSNTunSgoR4GtScIY-13" value="" style="rounded=1;whiteSpace=wrap;html=1;dashed=1;strokeWidth=3;" vertex="1" parent="1">
          <mxGeometry x="570" y="155" width="80" height="240" as="geometry" />
        </mxCell>
        <mxCell id="Jj3LSNTunSgoR4GtScIY-14" value="" style="rounded=1;whiteSpace=wrap;html=1;dashed=1;strokeWidth=3;" vertex="1" parent="1">
          <mxGeometry x="680" y="155" width="80" height="240" as="geometry" />
        </mxCell>
        <mxCell id="Jj3LSNTunSgoR4GtScIY-15" value="" style="endArrow=classic;html=1;rounded=0;entryX=0.145;entryY=0.145;entryDx=0;entryDy=0;entryPerimeter=0;exitX=1;exitY=0.5;exitDx=0;exitDy=0;exitPerimeter=0;" edge="1" parent="1" source="Jj3LSNTunSgoR4GtScIY-4" target="Jj3LSNTunSgoR4GtScIY-8">
          <mxGeometry width="50" height="50" relative="1" as="geometry">
            <mxPoint x="85" y="200" as="sourcePoint" />
            <mxPoint x="135" y="150" as="targetPoint" />
          </mxGeometry>
        </mxCell>
        <mxCell id="Jj3LSNTunSgoR4GtScIY-17" value="Data Access Layer" style="text;strokeColor=none;align=center;fillColor=none;html=1;verticalAlign=middle;whiteSpace=wrap;rounded=0;" vertex="1" parent="1">
          <mxGeometry x="690" y="239" width="60" height="30" as="geometry" />
        </mxCell>
        <mxCell id="Jj3LSNTunSgoR4GtScIY-18" value="Repositories" style="text;strokeColor=none;align=center;fillColor=none;html=1;verticalAlign=middle;whiteSpace=wrap;rounded=0;" vertex="1" parent="1">
          <mxGeometry x="580" y="239" width="60" height="30" as="geometry" />
        </mxCell>
        <mxCell id="Jj3LSNTunSgoR4GtScIY-19" value="Service Layer" style="text;strokeColor=none;align=center;fillColor=none;html=1;verticalAlign=middle;whiteSpace=wrap;rounded=0;" vertex="1" parent="1">
          <mxGeometry x="470" y="239" width="60" height="30" as="geometry" />
        </mxCell>
        <mxCell id="Jj3LSNTunSgoR4GtScIY-20" value="Web Controllers" style="text;strokeColor=none;align=center;fillColor=none;html=1;verticalAlign=middle;whiteSpace=wrap;rounded=0;" vertex="1" parent="1">
          <mxGeometry x="370" y="239" width="60" height="30" as="geometry" />
        </mxCell>
        <mxCell id="Jj3LSNTunSgoR4GtScIY-21" value="HTTP Request Pipeline" style="text;strokeColor=none;align=center;fillColor=none;html=1;verticalAlign=middle;whiteSpace=wrap;rounded=0;" vertex="1" parent="1">
          <mxGeometry x="270" y="239" width="60" height="30" as="geometry" />
        </mxCell>
        <mxCell id="Jj3LSNTunSgoR4GtScIY-24" value="" style="image;aspect=fixed;perimeter=ellipsePerimeter;html=1;align=center;shadow=0;dashed=0;spacingTop=3;image=img/lib/active_directory/database.svg;" vertex="1" parent="1">
          <mxGeometry x="810" y="276" width="50" height="37" as="geometry" />
        </mxCell>
        <mxCell id="Jj3LSNTunSgoR4GtScIY-25" value="" style="image;aspect=fixed;perimeter=ellipsePerimeter;html=1;align=center;shadow=0;dashed=0;spacingTop=3;image=img/lib/active_directory/database.svg;" vertex="1" parent="1">
          <mxGeometry x="810" y="263" width="50" height="37" as="geometry" />
        </mxCell>
        <mxCell id="Jj3LSNTunSgoR4GtScIY-26" value="" style="image;aspect=fixed;perimeter=ellipsePerimeter;html=1;align=center;shadow=0;dashed=0;spacingTop=3;image=img/lib/active_directory/database.svg;" vertex="1" parent="1">
          <mxGeometry x="810" y="251.5" width="50" height="37" as="geometry" />
        </mxCell>
        <mxCell id="Jj3LSNTunSgoR4GtScIY-27" value="" style="image;aspect=fixed;perimeter=ellipsePerimeter;html=1;align=center;shadow=0;dashed=0;spacingTop=3;image=img/lib/active_directory/database.svg;" vertex="1" parent="1">
          <mxGeometry x="810" y="239" width="50" height="37" as="geometry" />
        </mxCell>
        <mxCell id="Jj3LSNTunSgoR4GtScIY-31" value="" style="endArrow=classic;html=1;rounded=0;" edge="1" parent="1">
          <mxGeometry width="50" height="50" relative="1" as="geometry">
            <mxPoint x="179" y="272.5" as="sourcePoint" />
            <mxPoint x="220" y="273" as="targetPoint" />
          </mxGeometry>
        </mxCell>
        <mxCell id="Jj3LSNTunSgoR4GtScIY-35" value="" style="endArrow=classic;html=1;rounded=0;fillColor=#a20025;strokeColor=#A30000;strokeWidth=2;" edge="1" parent="1">
          <mxGeometry width="50" height="50" relative="1" as="geometry">
            <mxPoint x="340" y="269" as="sourcePoint" />
            <mxPoint x="361" y="269" as="targetPoint" />
          </mxGeometry>
        </mxCell>
        <mxCell id="Jj3LSNTunSgoR4GtScIY-36" value="" style="endArrow=classic;html=1;rounded=0;fillColor=#a20025;strokeColor=#A30000;strokeWidth=2;entryX=0.02;entryY=0.86;entryDx=0;entryDy=0;entryPerimeter=0;" edge="1" parent="1">
          <mxGeometry width="50" height="50" relative="1" as="geometry">
            <mxPoint x="440" y="268.5" as="sourcePoint" />
            <mxPoint x="471.20000000000005" y="268.99999999999994" as="targetPoint" />
          </mxGeometry>
        </mxCell>
        <mxCell id="Jj3LSNTunSgoR4GtScIY-37" value="" style="endArrow=classic;html=1;rounded=0;fillColor=#a20025;strokeColor=#A30000;strokeWidth=2;" edge="1" parent="1">
          <mxGeometry width="50" height="50" relative="1" as="geometry">
            <mxPoint x="550" y="269.8" as="sourcePoint" />
            <mxPoint x="571" y="269.8" as="targetPoint" />
          </mxGeometry>
        </mxCell>
        <mxCell id="Jj3LSNTunSgoR4GtScIY-38" value="" style="endArrow=classic;html=1;rounded=0;fillColor=#a20025;strokeColor=#A30000;strokeWidth=2;entryX=0;entryY=0.75;entryDx=0;entryDy=0;" edge="1" parent="1" target="Jj3LSNTunSgoR4GtScIY-27">
          <mxGeometry width="50" height="50" relative="1" as="geometry">
            <mxPoint x="760" y="264.18" as="sourcePoint" />
            <mxPoint x="800" y="264" as="targetPoint" />
          </mxGeometry>
        </mxCell>
        <mxCell id="Jj3LSNTunSgoR4GtScIY-39" value="" style="endArrow=classic;html=1;rounded=0;fillColor=#a20025;strokeColor=#A30000;strokeWidth=2;entryX=0.017;entryY=0.476;entryDx=0;entryDy=0;entryPerimeter=0;" edge="1" parent="1" target="Jj3LSNTunSgoR4GtScIY-14">
          <mxGeometry width="50" height="50" relative="1" as="geometry">
            <mxPoint x="650" y="268.44" as="sourcePoint" />
            <mxPoint x="671" y="268.44" as="targetPoint" />
          </mxGeometry>
        </mxCell>
      </root>
    </mxGraphModel>
  </diagram>
</mxfile>
